<svg xmlns="http://www.w3.org/2000/svg" xmlns:xlink="http://www.w3.org/1999/xlink" width="529.931" height="279.868" viewBox="0 0 529.931 279.868">
  <defs>
    <style>
      .cls-1 {
        fill: none;
      }

      .cls-2 {
        fill: #2d5b44;
      }

      .cls-3 {
        fill: #262626;
      }

      .cls-4 {
        fill: #fff;
      }

      .cls-5 {
        fill: #a7a9b0;
      }

      .cls-6 {
        clip-path: url(#clip-path);
      }
    </style>
    <clipPath id="clip-path">
      <path id="Clip_160" data-name="Clip 160" class="cls-1" d="M0,0H160.136V279.868H0Z"/>
    </clipPath>
  </defs>
  <g id="Group_194" data-name="Group 194" transform="translate(0)">
    <path id="Fill_1" data-name="Fill 1" class="cls-2" d="M238.1,0V34.757a568,568,0,0,1-62.009,31.2l-12.988,5.4C151.035,76.268,138.9,80.807,126.783,85c-22.5,8.188-58.753,17.929-58.753,17.929q-7.464,2-14.821,3.831l-12.991,3.2C26.358,113.223,12.9,116.077,0,118.575V83.818c12.9-2.5,26.358-5.352,40.218-8.618L53.209,72q7.352-1.837,14.821-3.831s36.253-9.74,58.753-17.929C138.9,46.05,151.035,41.511,163.1,36.6l12.988-5.4A567.987,567.987,0,0,0,238.1,0" transform="translate(132.009 105.634)"/>
    <path id="Fill_3" data-name="Fill 3" class="cls-3" d="M0,119.49H0V84.1l.25-.049c13.566-2.627,27.093-5.526,40.206-8.616l12.987-3.2c4.828-1.205,9.813-2.494,14.816-3.83.36-.1,36.6-9.869,58.728-17.921,12.417-4.3,24.631-8.886,36.3-13.639l12.986-5.4A569.372,569.372,0,0,0,238.247.273L238.713,0V35.474l-.153.088a570,570,0,0,1-62.043,31.216l-12.991,5.4c-11.706,4.765-23.93,9.358-36.333,13.65-22.247,8.1-58.412,17.838-58.774,17.935-4.877,1.3-9.865,2.593-14.827,3.831L40.6,110.8c-13.088,3.084-26.624,5.985-40.233,8.621L0,119.49ZM238.1,1.079h0a570.5,570.5,0,0,1-61.578,30.942l-12.991,5.4c-11.706,4.765-23.93,9.358-36.333,13.65-22.262,8.1-58.412,17.838-58.774,17.935-4.85,1.3-9.838,2.586-14.827,3.833L40.6,76.041C27.6,79.1,14.151,81.987.618,84.614V118.74c13.461-2.612,26.865-5.486,39.838-8.544L53.443,107c4.995-1.249,9.979-2.537,14.816-3.83.351-.093,36.48-9.824,58.728-17.92,12.412-4.3,24.626-8.886,36.3-13.64l12.986-5.4A569.447,569.447,0,0,0,238.1,35.119V1.079Z" transform="translate(131.7 105.094)"/>
    <path id="Fill_5" data-name="Fill 5" class="cls-4" d="M3.129,8.62A4.182,4.182,0,0,1,1.19,7.459,4.285,4.285,0,0,1,.117,5.393,4.287,4.287,0,0,1,.21,3.068,4.187,4.187,0,0,1,1.473,1.192,4.88,4.88,0,0,1,3.64.135,4.932,4.932,0,0,1,5.66.079a3.97,3.97,0,0,1,1.7.76l-.972,1.4a2.7,2.7,0,0,0-2.287-.5,2.816,2.816,0,0,0-1.29.64,2.435,2.435,0,0,0-.727,1.144,2.812,2.812,0,0,0-.031,1.441,2.815,2.815,0,0,0,.64,1.291,2.433,2.433,0,0,0,1.144.726,2.819,2.819,0,0,0,1.44.032,2.688,2.688,0,0,0,1.854-1.44L8.6,6.43A3.911,3.911,0,0,1,7.387,7.849a4.94,4.94,0,0,1-1.858.81,4.836,4.836,0,0,1-2.4-.039" transform="translate(155.73 196.805)"/>
    <path id="Fill_7" data-name="Fill 7" class="cls-4" d="M6.323,6.053,7,8.966,5.1,9.41,4.415,6.474,0,1.931l2.02-.472L5.068,4.6,6.413.435,8.28,0Z" transform="translate(163.926 194.137)"/>
    <path id="Fill_9" data-name="Fill 9" class="cls-4" d="M2.018,9.237h0L0,1.04,3.548.166A5.356,5.356,0,0,1,4.821,0a3.937,3.937,0,0,1,.708.062,2.918,2.918,0,0,1,1.49.727,2.94,2.94,0,0,1,.823,1.474,2.944,2.944,0,0,1-.046,1.682A2.855,2.855,0,0,1,6.813,5.28a4.784,4.784,0,0,1-1.8.823l-1.651.406.556,2.26-1.9.468ZM4.525,1.643a2.939,2.939,0,0,0-.7.095l-1.546.38.7,2.846,1.546-.381a2.061,2.061,0,0,0,1.209-.689A1.328,1.328,0,0,0,5.92,2.737a1.339,1.339,0,0,0-.707-.95,1.569,1.569,0,0,0-.689-.143Z" transform="translate(173.96 192.638)"/>
    <path id="Fill_11" data-name="Fill 11" class="cls-4" d="M2.078,9.257h0L0,1.076l3.542-.9A5.3,5.3,0,0,1,4.844,0a3.9,3.9,0,0,1,.677.058,2.926,2.926,0,0,1,1.5.716,2.943,2.943,0,0,1,.832,1.468A2.893,2.893,0,0,1,7.81,3.926a2.876,2.876,0,0,1-.988,1.327l2.5,2.164-2.033.517L5.135,6.054l-.095.024L3.393,6.5l.579,2.28-1.893.48ZM4.544,1.646a2.94,2.94,0,0,0-.716.1l-1.543.392L3.01,4.989,4.553,4.6a2.028,2.028,0,0,0,1.2-.7,1.342,1.342,0,0,0,.177-1.164,1.345,1.345,0,0,0-.713-.945,1.567,1.567,0,0,0-.675-.138Z" transform="translate(183.512 190.256)"/>
    <path id="Fill_13" data-name="Fill 13" class="cls-4" d="M8.08,6.6l.4,1.516L2.163,9.8,0,1.635,6.167,0l.4,1.515L2.278,2.653l.47,1.771,3.789-1,.389,1.469-3.788,1,.5,1.889Z" transform="translate(193.162 187.225)"/>
    <path id="Fill_15" data-name="Fill 15" class="cls-4" d="M2.941,8.987A4.571,4.571,0,0,1,1.3,8.71l.244-1.6a4.49,4.49,0,0,0,1.415.268,4.812,4.812,0,0,0,1.505-.167,2.387,2.387,0,0,0,1.119-.569.748.748,0,0,0,.207-.74.63.63,0,0,0-.361-.419,1.781,1.781,0,0,0-.666-.147c-.258-.01-.6-.007-1.03.012a13.678,13.678,0,0,1-1.645-.017A2.564,2.564,0,0,1,.879,4.91,1.986,1.986,0,0,1,.093,3.727a2.343,2.343,0,0,1,.026-1.39,2.661,2.661,0,0,1,.9-1.234A4.873,4.873,0,0,1,2.815.24,6.449,6.449,0,0,1,4.388,0a4.694,4.694,0,0,1,1.45.172l-.183,1.59a4.714,4.714,0,0,0-2.431-.01,2.177,2.177,0,0,0-1.1.581.811.811,0,0,0-.19.778.685.685,0,0,0,.609.5,6.967,6.967,0,0,0,1.442.03,14.079,14.079,0,0,1,1.645.018,2.622,2.622,0,0,1,1.21.415,1.938,1.938,0,0,1,.784,1.171,2.315,2.315,0,0,1-.035,1.381,2.715,2.715,0,0,1-.914,1.237,4.936,4.936,0,0,1-1.8.864,6.909,6.909,0,0,1-1.937.258" transform="translate(202.116 185.279)"/>
    <path id="Fill_17" data-name="Fill 17" class="cls-4" d="M2.983,9a4.536,4.536,0,0,1-1.638-.266l.233-1.6A4.476,4.476,0,0,0,2.994,7.4,4.871,4.871,0,0,0,4.5,7.216,2.406,2.406,0,0,0,5.613,6.64a.748.748,0,0,0,.2-.742.629.629,0,0,0-.364-.417,1.794,1.794,0,0,0-.667-.14c-.258-.01-.6,0-1.03.018a13.149,13.149,0,0,1-1.645-.007A2.544,2.544,0,0,1,.892,4.936,1.984,1.984,0,0,1,.1,3.759,2.355,2.355,0,0,1,.113,2.368a2.68,2.68,0,0,1,.893-1.24A4.9,4.9,0,0,1,2.794.253,6.459,6.459,0,0,1,4.366,0,4.653,4.653,0,0,1,5.817.165L5.646,1.757a4.709,4.709,0,0,0-2.432.006,2.177,2.177,0,0,0-1.092.589.81.81,0,0,0-.185.78.686.686,0,0,0,.613.5,7.193,7.193,0,0,0,1.442.02,14.029,14.029,0,0,1,1.645,0,2.618,2.618,0,0,1,1.213.406,1.944,1.944,0,0,1,.792,1.166,2.3,2.3,0,0,1-.025,1.38A2.722,2.722,0,0,1,6.712,7.85a4.964,4.964,0,0,1-1.793.877A6.95,6.95,0,0,1,2.983,9" transform="translate(210.629 182.866)"/>
    <path id="Fill_19" data-name="Fill 19" class="cls-4" d="M6.135,3.841l1.71-.513.984,3.281a5.1,5.1,0,0,1-1.3,1.219,6.159,6.159,0,0,1-1.665.789,4.933,4.933,0,0,1-2.425.142A4.16,4.16,0,0,1,1.419,7.742,4.279,4.279,0,0,1,.2,5.76,4.286,4.286,0,0,1,.127,3.434,4.154,4.154,0,0,1,1.268,1.467,5.035,5.035,0,0,1,3.394.243,5.246,5.246,0,0,1,5.431.023,4,4,0,0,1,7.2.626L6.329,2.1A2.9,2.9,0,0,0,3.965,1.81a2.982,2.982,0,0,0-1.278.736,2.424,2.424,0,0,0-.662,1.193,2.808,2.808,0,0,0,.07,1.453,2.784,2.784,0,0,0,.738,1.239,2.463,2.463,0,0,0,1.205.639,2.877,2.877,0,0,0,1.456-.078,3.162,3.162,0,0,0,1.351-.783Z" transform="translate(223.881 178.815)"/>
    <path id="Fill_21" data-name="Fill 21" class="cls-4" d="M2.521,9.4h0L0,1.343,3.487.251A5.1,5.1,0,0,1,5,0a3.8,3.8,0,0,1,.456.027A2.906,2.906,0,0,1,6.989.659,2.958,2.958,0,0,1,7.9,2.079a2.88,2.88,0,0,1,.053,1.683A2.9,2.9,0,0,1,7.04,5.143L9.657,7.165l-2,.627L5.4,6.035l-.092.029-1.623.508.7,2.245L2.522,9.4ZM4.678,1.662a2.762,2.762,0,0,0-.819.142L2.34,2.279l.879,2.808,1.518-.475A2.039,2.039,0,0,0,5.9,3.843,1.344,1.344,0,0,0,6.013,2.67a1.341,1.341,0,0,0-.763-.9,1.507,1.507,0,0,0-.571-.1Z" transform="translate(233.314 176.038)"/>
    <path id="Fill_23" data-name="Fill 23" class="cls-4" d="M4.36,8.84a4.581,4.581,0,0,1-.788-.068,4.218,4.218,0,0,1-2.061-.96A4.281,4.281,0,0,1,.239,5.877,4.286,4.286,0,0,1,.1,3.566a4.226,4.226,0,0,1,1.075-2A4.965,4.965,0,0,1,3.244.276,5.2,5.2,0,0,1,4.878,0a4.56,4.56,0,0,1,.788.069A4.223,4.223,0,0,1,9,2.961a4.221,4.221,0,0,1-.941,4.316A4.9,4.9,0,0,1,6,8.562,5.2,5.2,0,0,1,4.36,8.84Zm.3-7.133a2.807,2.807,0,0,0-.888.149A2.679,2.679,0,0,0,2.6,2.607,2.478,2.478,0,0,0,2,3.817a2.831,2.831,0,0,0,.114,1.436,2.829,2.829,0,0,0,.769,1.22,2.479,2.479,0,0,0,1.2.612,2.586,2.586,0,0,0,.5.049,2.843,2.843,0,0,0,.892-.149A2.688,2.688,0,0,0,6.647,6.23a2.479,2.479,0,0,0,.6-1.208,2.834,2.834,0,0,0-.116-1.437,2.829,2.829,0,0,0-.768-1.218,2.463,2.463,0,0,0-1.2-.611,2.6,2.6,0,0,0-.5-.049Z" transform="translate(243.337 172.709)"/>
    <path id="Fill_25" data-name="Fill 25" class="cls-4" d="M12.736,0l.185,8.88-1.981.694L7.3,4.793l.08,6.029-1.969.69L0,4.461l1.912-.669,3.76,4.97L5.588,2.5l1.708-.6,3.8,5.007-.122-6.3Z" transform="translate(252.366 166.69)"/>
    <path id="Fill_27" data-name="Fill 27" class="cls-4" d="M3.085,3.1.55,4.035,0,2.541,6.9,0l.55,1.5-2.536.932L7.284,8.855,5.451,9.53Z" transform="translate(266.218 163.723)"/>
    <path id="Fill_29" data-name="Fill 29" class="cls-4" d="M7.229,0,10.25,7.883l-1.823.7L7.187,5.351,3.607,6.724,4.845,9.955l-1.824.7L0,2.771l1.824-.7L3.015,5.18,6.6,3.808,5.405.7Z" transform="translate(275.105 160.209)"/>
    <path id="Fill_31" data-name="Fill 31" class="cls-4" d="M3.872,8.849a4.194,4.194,0,0,1-2.11-.812A4.286,4.286,0,0,1,.352,6.185,4.284,4.284,0,0,1,.046,3.878,4.185,4.185,0,0,1,.968,1.815,4.866,4.866,0,0,1,2.923.4,4.91,4.91,0,0,1,4.9,0,3.979,3.979,0,0,1,6.7.459L5.986,2.007a2.7,2.7,0,0,0-2.339-.1,2.819,2.819,0,0,0-1.162.851,2.44,2.44,0,0,0-.52,1.252,2.807,2.807,0,0,0,.216,1.425,2.826,2.826,0,0,0,.851,1.162,2.455,2.455,0,0,0,1.252.521A2.838,2.838,0,0,0,5.708,6.9a2.683,2.683,0,0,0,1.58-1.735l1.6.592a3.893,3.893,0,0,1-.954,1.607A4.948,4.948,0,0,1,6.243,8.477a4.856,4.856,0,0,1-2.371.372" transform="translate(290.138 155.349)"/>
    <path id="Fill_33" data-name="Fill 33" class="cls-4" d="M0,9.979v0L.233.74,2.014,0,8.742,6.344l-1.894.787L5.463,5.749l-3.618,1.5,0,1.957L0,9.979ZM1.849,2.144l.005,3.5L4.326,4.615Z" transform="translate(300.684 151.897)"/>
    <path id="Fill_35" data-name="Fill 35" class="cls-4" d="M3.43,9.648h0L0,1.934,3.339.45A4.727,4.727,0,0,1,5.249,0H5.27A2.912,2.912,0,0,1,6.864.452,2.95,2.95,0,0,1,7.933,1.758a2.941,2.941,0,0,1,.252,1.664A2.847,2.847,0,0,1,7.453,4.91a4.779,4.779,0,0,1-1.63,1.128l-1.553.69.945,2.127-1.784.793ZM4.885,1.7a2.507,2.507,0,0,0-1,.247l-1.454.646L3.623,5.273l1.453-.646a2.066,2.066,0,0,0,1.069-.892,1.329,1.329,0,0,0-.02-1.173,1.345,1.345,0,0,0-.862-.81A1.4,1.4,0,0,0,4.885,1.7Z" transform="translate(307.934 147.734)"/>
    <path id="Fill_37" data-name="Fill 37" class="cls-4" d="M0,.815,1.775,0,5.3,7.671l-1.775.816Z" transform="translate(316.867 144.846)"/>
    <path id="Fill_39" data-name="Fill 39" class="cls-4" d="M3.123,3.429.681,4.584,0,3.146,6.651,0l.68,1.439L4.889,2.594,7.818,8.786l-1.766.835Z" transform="translate(320.584 140.813)"/>
    <path id="Fill_41" data-name="Fill 41" class="cls-4" d="M.35,10.088v0L0,.852,1.731,0,8.845,5.908,7,6.814,5.536,5.521,2.019,7.251,2.147,9.2l-1.8.883ZM1.7,2.152l.226,3.491,2.4-1.182Z" transform="translate(331.118 138.064)"/>
    <path id="Fill_43" data-name="Fill 43" class="cls-4" d="M0,.892,1.739,0,4.864,6.1,8.631,4.164,9.357,5.58,3.853,8.4Z" transform="translate(337.94 134.63)"/>
    <path id="Fill_97" data-name="Fill 97" class="cls-4" d="M.068,1.334c1.623,0,3.073-.116,4.291-1.315a.056.056,0,0,1,.087.069c-.9,1.429-2.857,1.635-4.382,1.4-.084-.012-.087-.154,0-.154" transform="translate(120.291 148.667)"/>
    <path id="Fill_139" data-name="Fill 139" class="cls-4" d="M21.2,4.952a.272.272,0,0,0-.052-.526c-1.056-.146-2.191-.341-3.288-.53-1.167-.2-2.374-.407-3.514-.56q-1.463-.2-2.926-.384c-1.158-.15-2.356-.306-3.54-.468q-1.074-.146-2.147-.3l-.149-.02L4.268,1.982A5.163,5.163,0,0,1,.5.12.272.272,0,1,0,.047.425a5.642,5.642,0,0,0,4.146,2.1L5.507,2.7l.15.021c.716.1,1.432.2,2.148.3,1.186.162,2.384.318,3.544.468q1.463.189,2.923.384c1.131.151,2.333.358,3.495.557,1.1.19,2.241.385,3.306.532a.267.267,0,0,0,.126-.013" transform="translate(119.682 114.302)"/>
    <path id="Fill_151" data-name="Fill 151" class="cls-4" d="M.166,2.364A2.779,2.779,0,0,1,.347.029.081.081,0,0,1,.49.091,6.836,6.836,0,0,0,.326,1.343,5.3,5.3,0,0,0,.55,2.585,15.82,15.82,0,0,0,1.587,4.828a.086.086,0,0,1-.132.1A5.206,5.206,0,0,1,.166,2.364" transform="translate(174.201 112.489)"/>
    <path id="Fill_153" data-name="Fill 153" class="cls-5" d="M131.7,0V90.517H0V16.985S55.982,14.666,131.7,0" transform="translate(0.309 189.042)"/>
    <path id="Fill_155" data-name="Fill 155" class="cls-3" d="M132.317,91.2H0V17.063l.3-.011c.588-.025,14.658-.652,37.977-3.065C59.653,11.775,93.259,7.565,131.95.071L132.317,0V91.2ZM131.7.749c-30.063,5.812-60.615,10.383-90.8,13.585-23,2.44-37.585,3.2-40.276,3.322V90.582H131.7V.749Z" transform="translate(0 188.667)"/>
    <path id="Fill_157" data-name="Fill 157" class="cls-5" d="M159.518,279.154H0V104.818A438.711,438.711,0,0,0,49.485,71.283c10.632-8.361,20.32-17.732,30.329-26.671C106.262,20.989,133.3,7.136,159.518,0Z" transform="translate(370.104 0.405)"/>
    <g id="Group_161" data-name="Group 161" transform="translate(369.795)">
      <path id="Clip_160-2" data-name="Clip 160" class="cls-1" d="M0,0H160.136V279.868H0Z"/>
      <g id="Group_161-2" data-name="Group 161" class="cls-6">
        <path id="Fill_159" data-name="Fill 159" class="cls-3" d="M160.136,279.87H0V105.047l.152-.09A439.929,439.929,0,0,0,49.6,71.445c7.66-6.025,14.938-12.671,21.975-19.1,2.577-2.353,5.495-5.018,8.34-7.559C104.441,22.882,131.3,7.849,159.746.106l.39-.106V279.869ZM159.518.811c-28.206,7.746-54.849,22.7-79.189,44.437C77.619,47.669,74.952,50.1,72,52.8l-.021.019C64.933,59.253,57.65,65.9,49.985,71.932A440.581,440.581,0,0,1,.618,105.4V279.25h158.9V.811Z" transform="translate(0 -0.001)"/>
      </g>
    </g>
    <path id="Fill_162" data-name="Fill 162" class="cls-3" d="M1.5,8.46a4.54,4.54,0,0,1-1.5-.7L.663,6.283a4.5,4.5,0,0,0,1.29.64,4.844,4.844,0,0,0,1.5.241,2.388,2.388,0,0,0,1.23-.247.748.748,0,0,0,.4-.658.631.631,0,0,0-.235-.5,1.792,1.792,0,0,0-.6-.32q-.369-.12-.995-.265a13.515,13.515,0,0,1-1.58-.458A2.563,2.563,0,0,1,.609,3.98,1.983,1.983,0,0,1,.168,2.63,2.352,2.352,0,0,1,.566,1.3a2.669,2.669,0,0,1,1.2-.946A4.883,4.883,0,0,1,3.726,0a6.473,6.473,0,0,1,1.58.193A4.692,4.692,0,0,1,6.657.748l-.6,1.483a4.7,4.7,0,0,0-2.339-.663A2.2,2.2,0,0,0,2.5,1.833a.812.812,0,0,0-.392.7.685.685,0,0,0,.452.645,7.118,7.118,0,0,0,1.381.416,13.75,13.75,0,0,1,1.58.459,2.6,2.6,0,0,1,1.055.723,1.938,1.938,0,0,1,.44,1.338,2.3,2.3,0,0,1-.4,1.322A2.722,2.722,0,0,1,5.4,8.382a4.938,4.938,0,0,1-1.965.349A6.866,6.866,0,0,1,1.5,8.46" transform="translate(47.248 237.445)"/>
    <path id="Fill_164" data-name="Fill 164" class="cls-3" d="M6.536,6.874V8.441H0V0H6.379V1.567H1.941V3.4h3.92V4.92H1.941V6.874Z" transform="translate(56.811 237.59)"/>
    <path id="Fill_166" data-name="Fill 166" class="cls-3" d="M6.537,6.874V8.441H0V0H6.38V1.567H1.942V3.4H5.861V4.92H1.942V6.874Z" transform="translate(66.108 237.59)"/>
    <path id="Fill_168" data-name="Fill 168" class="cls-3" d="M3.835,8.442H0V0H3.835a5.406,5.406,0,0,1,2.43.525A3.948,3.948,0,0,1,7.906,2a4.184,4.184,0,0,1,.584,2.22A4.178,4.178,0,0,1,7.906,6.44,3.961,3.961,0,0,1,6.265,7.917,5.406,5.406,0,0,1,3.835,8.442ZM1.954,1.6V6.838H3.739a2.847,2.847,0,0,0,2.02-.707,2.5,2.5,0,0,0,.754-1.911A2.5,2.5,0,0,0,5.759,2.31,2.847,2.847,0,0,0,3.739,1.6Z" transform="translate(75.407 237.59)"/>
    <path id="Fill_170" data-name="Fill 170" class="cls-3" d="M1.954,1.567V3.8H5.861V5.367H1.954V8.442H0V0H6.38V1.567Z" transform="translate(200.683 237.59)"/>
    <path id="Fill_172" data-name="Fill 172" class="cls-3" d="M1.007,7.586A3.854,3.854,0,0,1,0,4.728V0H1.954V4.655q0,2.268,1.881,2.268a1.762,1.762,0,0,0,1.4-.549,2.556,2.556,0,0,0,.482-1.719V0h1.93V4.728A3.854,3.854,0,0,1,6.639,7.586a3.821,3.821,0,0,1-2.816,1,3.821,3.821,0,0,1-2.816-1" transform="translate(209.522 237.589)"/>
    <path id="Fill_174" data-name="Fill 174" class="cls-3" d="M7.742,0V8.442h-1.6L1.929,3.316V8.442H0V0H1.616l4.2,5.126V0Z" transform="translate(220.304 237.589)"/>
    <path id="Fill_176" data-name="Fill 176" class="cls-3" d="M3.835,8.442H0V0H3.835a5.406,5.406,0,0,1,2.43.525A3.948,3.948,0,0,1,7.906,2,4.183,4.183,0,0,1,8.49,4.221a4.18,4.18,0,0,1-.584,2.22A3.968,3.968,0,0,1,6.265,7.918,5.407,5.407,0,0,1,3.835,8.442ZM1.954,1.6V6.838H3.739a2.848,2.848,0,0,0,2.02-.706,2.5,2.5,0,0,0,.754-1.912A2.5,2.5,0,0,0,5.759,2.31,2.848,2.848,0,0,0,3.739,1.6Z" transform="translate(231.254 237.589)"/>
    <path id="Fill_178" data-name="Fill 178" class="cls-3" d="M0,8.442H1.954V0H0Z" transform="translate(242.422 237.589)"/>
    <path id="Fill_180" data-name="Fill 180" class="cls-3" d="M7.742,0V8.442h-1.6L1.929,3.316V8.442H0V0H1.616l4.2,5.126V0Z" transform="translate(247.583 237.589)"/>
    <path id="Fill_181" data-name="Fill 181" class="cls-3" d="M6.235,4.233H8.02V7.658a5.093,5.093,0,0,1-1.592.8,6.21,6.21,0,0,1-1.821.277,4.948,4.948,0,0,1-2.364-.56A4.184,4.184,0,0,1,.6,6.614,4.283,4.283,0,0,1,0,4.365,4.288,4.288,0,0,1,.6,2.116,4.161,4.161,0,0,1,2.255.56,5.044,5.044,0,0,1,4.643,0,5.229,5.229,0,0,1,6.657.374a3.992,3.992,0,0,1,1.52,1.085L6.922,2.617A2.9,2.9,0,0,0,4.74,1.664,2.976,2.976,0,0,0,3.305,2a2.416,2.416,0,0,0-.977.953,2.793,2.793,0,0,0-.35,1.41,2.77,2.77,0,0,0,.35,1.4,2.471,2.471,0,0,0,.97.959,2.883,2.883,0,0,0,1.417.344A3.169,3.169,0,0,0,6.235,6.7Z" transform="translate(258.002 237.445)"/>
    <path id="Fill_182" data-name="Fill 182" class="cls-3" d="M6.235,4.233H8.02V7.658a5.1,5.1,0,0,1-1.592.8,6.21,6.21,0,0,1-1.821.277,4.945,4.945,0,0,1-2.364-.56A4.184,4.184,0,0,1,.6,6.614,4.283,4.283,0,0,1,0,4.365,4.288,4.288,0,0,1,.6,2.116,4.161,4.161,0,0,1,2.255.56,5.041,5.041,0,0,1,4.643,0,5.229,5.229,0,0,1,6.657.374,3.989,3.989,0,0,1,8.176,1.459L6.922,2.617A2.9,2.9,0,0,0,4.74,1.664,2.983,2.983,0,0,0,3.3,2a2.42,2.42,0,0,0-.976.953,2.793,2.793,0,0,0-.35,1.41,2.77,2.77,0,0,0,.35,1.4,2.471,2.471,0,0,0,.97.959,2.88,2.88,0,0,0,1.417.344A3.169,3.169,0,0,0,6.235,6.7Z" transform="translate(273.125 237.445)"/>
    <path id="Fill_183" data-name="Fill 183" class="cls-3" d="M2,8.443H0L3.763,0H5.692L9.466,8.441H7.417l-.748-1.81H2.75L2,8.442ZM4.715,1.918,3.377,5.149H6.054Z" transform="translate(283.051 237.59)"/>
    <path id="Fill_184" data-name="Fill 184" class="cls-3" d="M1.954,8.443H0V0H3.655A4.7,4.7,0,0,1,5.6.374,2.9,2.9,0,0,1,6.875,1.436a2.934,2.934,0,0,1,.445,1.627,2.955,2.955,0,0,1-.445,1.623A2.87,2.87,0,0,1,5.6,5.747a4.764,4.764,0,0,1-1.947.367h-1.7V8.442Zm0-6.851V4.523H3.546a2.065,2.065,0,0,0,1.339-.381,1.328,1.328,0,0,0,.458-1.079,1.346,1.346,0,0,0-.458-1.092,2.066,2.066,0,0,0-1.339-.38Z" transform="translate(294.603 237.589)"/>
    <path id="Fill_185" data-name="Fill 185" class="cls-3" d="M6.235,4.233H8.02V7.658a5.093,5.093,0,0,1-1.592.8,6.21,6.21,0,0,1-1.821.277,4.948,4.948,0,0,1-2.364-.56A4.184,4.184,0,0,1,.6,6.614,4.283,4.283,0,0,1,0,4.365,4.288,4.288,0,0,1,.6,2.116,4.161,4.161,0,0,1,2.255.56,5.044,5.044,0,0,1,4.643,0,5.229,5.229,0,0,1,6.657.374a4,4,0,0,1,1.52,1.085L6.922,2.617A2.9,2.9,0,0,0,4.74,1.664,2.983,2.983,0,0,0,3.3,2a2.42,2.42,0,0,0-.976.953,2.793,2.793,0,0,0-.35,1.41,2.77,2.77,0,0,0,.35,1.4,2.471,2.471,0,0,0,.97.959,2.88,2.88,0,0,0,1.417.344A3.169,3.169,0,0,0,6.235,6.7Z" transform="translate(402.379 237.445)"/>
    <path id="Fill_186" data-name="Fill 186" class="cls-3" d="M1.954,8.444H0V0H3.655A4.7,4.7,0,0,1,5.6.374,2.9,2.9,0,0,1,6.875,1.436a2.934,2.934,0,0,1,.445,1.627,2.874,2.874,0,0,1-.453,1.623A2.874,2.874,0,0,1,5.584,5.729L7.477,8.441l-2.1,0L3.751,6.09h-1.8V8.443Zm0-6.852V4.535H3.546a2.036,2.036,0,0,0,1.339-.386,1.348,1.348,0,0,0,.458-1.085,1.346,1.346,0,0,0-.458-1.092,2.066,2.066,0,0,0-1.339-.38Z" transform="translate(413.413 237.589)"/>
    <path id="Fill_187" data-name="Fill 187" class="cls-3" d="M4.619,8.732a4.941,4.941,0,0,1-2.37-.568A4.232,4.232,0,0,1,.6,6.6,4.285,4.285,0,0,1,0,4.366,4.279,4.279,0,0,1,.6,2.129,4.228,4.228,0,0,1,2.249.568,4.941,4.941,0,0,1,4.619,0,4.909,4.909,0,0,1,6.983.568a4.225,4.225,0,0,1,2.255,3.8,4.222,4.222,0,0,1-2.255,3.8A4.909,4.909,0,0,1,4.619,8.732Zm0-7.068a2.707,2.707,0,0,0-1.351.344,2.48,2.48,0,0,0-.946.959,2.833,2.833,0,0,0-.344,1.4,2.84,2.84,0,0,0,.344,1.4,2.468,2.468,0,0,0,.946.958,2.69,2.69,0,0,0,1.351.344A2.685,2.685,0,0,0,5.97,6.724a2.486,2.486,0,0,0,.948-.958,2.84,2.84,0,0,0,.343-1.4,2.833,2.833,0,0,0-.343-1.4,2.5,2.5,0,0,0-.948-.959A2.7,2.7,0,0,0,4.619,1.664Z" transform="translate(422.953 237.444)"/>
    <path id="Fill_188" data-name="Fill 188" class="cls-3" d="M13.495,0,10.733,8.442h-2.1L6.778,2.726,4.86,8.442H2.774L0,0H2.026L3.932,5.934,5.922,0H7.73L9.66,5.981,11.626,0Z" transform="translate(433.855 237.589)"/>
    <path id="Fill_189" data-name="Fill 189" class="cls-3" d="M2.7,1.592H0V0H7.357V1.592h-2.7V8.443H2.7Z" transform="translate(448.712 237.589)"/>
    <path id="Fill_190" data-name="Fill 190" class="cls-3" d="M7.743,0V8.442H5.789V4.98H1.954V8.442H0V0H1.954V3.329H5.789V0Z" transform="translate(458.324 237.589)"/>
    <path id="Fill_191" data-name="Fill 191" class="cls-3" d="M3.98,0H5.656L1.676,11.36H0Z" transform="translate(467.876 235.877)"/>
    <path id="Fill_192" data-name="Fill 192" class="cls-3" d="M1.953,8.443H0V0H3.654A4.7,4.7,0,0,1,5.6.374,2.9,2.9,0,0,1,6.874,1.436,2.934,2.934,0,0,1,7.32,3.064a2.955,2.955,0,0,1-.445,1.623A2.87,2.87,0,0,1,5.6,5.747a4.764,4.764,0,0,1-1.947.367h-1.7V8.442Zm0-6.851V4.523H3.545a2.065,2.065,0,0,0,1.339-.381,1.326,1.326,0,0,0,.458-1.079,1.344,1.344,0,0,0-.458-1.092,2.066,2.066,0,0,0-1.339-.38Z" transform="translate(475.209 237.589)"/>
    <path id="Fill_193" data-name="Fill 193" class="cls-3" d="M6.537,6.874V8.442H0V0H6.38V1.567H1.942V3.4h3.92v1.52H1.942V6.874Z" transform="translate(485.121 237.589)"/>
  </g>
</svg>
