<svg xmlns="http://www.w3.org/2000/svg" width="223.6" height="42.9" viewBox="0 0 223.6 42.9">
  <g id="Group_50" data-name="Group 50" transform="translate(-1)">
    <path id="Rectangle" d="M35.1,14.9h7.1a3.009,3.009,0,0,1,3,3V25a2.946,2.946,0,0,1-3,3H35.1a3.009,3.009,0,0,1-3-3V17.9A2.946,2.946,0,0,1,35.1,14.9Z" fill="#9dd4bb"/>
    <path id="Rectangle_Copy_8" d="M35.1,0h7.1a3.009,3.009,0,0,1,3,3v7.1a2.946,2.946,0,0,1-3,3H35.1a3.009,3.009,0,0,1-3-3V3A2.946,2.946,0,0,1,35.1,0Z" fill="#fff"/>
    <path id="Rectangle_Copy_11" d="M35.1,29.8h7.1a3.009,3.009,0,0,1,3,3v7.1a2.946,2.946,0,0,1-3,3H35.1a3.009,3.009,0,0,1-3-3V32.8A2.946,2.946,0,0,1,35.1,29.8Z" fill="#fff"/>
    <path id="Rectangle_Copy_6" d="M19.5,14.9h7.1a3.009,3.009,0,0,1,3,3V25a2.946,2.946,0,0,1-3,3H19.5a3.009,3.009,0,0,1-3-3V17.9A3.009,3.009,0,0,1,19.5,14.9Z" fill="#9dd4bb"/>
    <path id="Rectangle_Copy_9" d="M19.5,0h7.1a3.009,3.009,0,0,1,3,3v7.1a2.946,2.946,0,0,1-3,3H19.5a3.009,3.009,0,0,1-3-3V3A3.009,3.009,0,0,1,19.5,0Z" fill="#fff"/>
    <path id="Rectangle_Copy_12" d="M19.5,29.8h7.1a3.009,3.009,0,0,1,3,3v7.1a2.946,2.946,0,0,1-3,3H19.5a3.009,3.009,0,0,1-3-3V32.8A3.009,3.009,0,0,1,19.5,29.8Z" fill="#fff"/>
    <path id="Rectangle_Copy_7" d="M4,14.9h7.1a3.009,3.009,0,0,1,3,3V25a2.946,2.946,0,0,1-3,3H4a3.009,3.009,0,0,1-3-3V17.9A2.946,2.946,0,0,1,4,14.9Z" fill="#fff"/>
    <path id="Rectangle_Copy_10" d="M4,0h7.1a3.009,3.009,0,0,1,3,3v7.1a2.946,2.946,0,0,1-3,3H4a3.009,3.009,0,0,1-3-3V3A2.946,2.946,0,0,1,4,0Z" fill="#fff"/>
    <path id="Rectangle_Copy_13" d="M4,29.8h7.1a3.009,3.009,0,0,1,3,3v7.1a2.946,2.946,0,0,1-3,3H4a3.009,3.009,0,0,1-3-3V32.8A2.946,2.946,0,0,1,4,29.8Z" fill="#fff"/>
    <g id="Group-3" transform="translate(45)">
      <path id="CYPRESS_00000122704852158425682310000004345607198075140242_" d="M27,24.9a12.7,12.7,0,0,0,5.2-1,10.356,10.356,0,0,0,4-2.8h0L34,18.9a9.065,9.065,0,0,1-6.8,2.9,9.5,9.5,0,0,1-4.8-1.2A8.979,8.979,0,0,1,19,17.3a9.392,9.392,0,0,1-1.2-4.7A9.392,9.392,0,0,1,19,7.9a8.322,8.322,0,0,1,3.4-3.3,9.77,9.77,0,0,1,4.8-1.2A9.065,9.065,0,0,1,34,6.3h0L36.1,4a10.356,10.356,0,0,0-4-2.8A14.4,14.4,0,0,0,27,.3,12.867,12.867,0,0,0,15.9,6.2a12.058,12.058,0,0,0-1.6,6.3,12.058,12.058,0,0,0,1.6,6.3,11.883,11.883,0,0,0,4.5,4.4A13.228,13.228,0,0,0,27,24.9Zm24-.3V16.3L60.5.5H57.1L49.4,13.2,41.8.5H38.1l9.5,15.7v8.4Zm17.3,0V17.3h5.9c3.1,0,5.6-.7,7.3-2.2a8,8,0,0,0,2.7-6.2,7.68,7.68,0,0,0-2.7-6.2C79.7,1.2,77.3.5,74.2.5H64.8V24.6Zm5.8-10.3H68.3V3.5h5.8a8.041,8.041,0,0,1,5,1.4,4.988,4.988,0,0,1,1.7,4,4.988,4.988,0,0,1-1.7,4,7.453,7.453,0,0,1-5,1.4ZM93.9,24.6V17.3h5.9a8.636,8.636,0,0,0,1.5-.1h0l5.2,7.4h3.7l-5.7-8.1a7.763,7.763,0,0,0,3.9-2.9,8.25,8.25,0,0,0,1.4-4.8,7.68,7.68,0,0,0-2.7-6.2C105.3,1.1,102.9.4,99.8.4H90.4V24.5h3.5Zm5.9-10.2H94V3.5h5.8a8.041,8.041,0,0,1,5,1.4,4.7,4.7,0,0,1,1.7,4,4.988,4.988,0,0,1-1.7,4,7.647,7.647,0,0,1-5,1.5Zm34.3,10.2v-3h-14V13.8h12V10.9h-12V3.5h13.5V.5H116.7V24.6Zm13.8.3A12.592,12.592,0,0,0,153,24a6.524,6.524,0,0,0,3.1-2.5,5.986,5.986,0,0,0,1-3.5,5.219,5.219,0,0,0-1.2-3.6,6.9,6.9,0,0,0-2.8-2,34.99,34.99,0,0,0-4.4-1.3,24.337,24.337,0,0,1-3.3-.9,5.613,5.613,0,0,1-2-1.2,2.792,2.792,0,0,1-.8-2,3.472,3.472,0,0,1,1.5-2.8,7.488,7.488,0,0,1,4.4-1.1,13.986,13.986,0,0,1,3.4.5A17.723,17.723,0,0,1,155,5.1h0l1.1-2.8A12.481,12.481,0,0,0,152.6.7a15.225,15.225,0,0,0-4.2-.6,12.929,12.929,0,0,0-5.1.9,6.524,6.524,0,0,0-3.1,2.5,5.986,5.986,0,0,0-1,3.5,5.489,5.489,0,0,0,1.2,3.7,6.9,6.9,0,0,0,2.8,2,34.99,34.99,0,0,0,4.4,1.3c1.4.3,2.6.7,3.3.9a5.613,5.613,0,0,1,2,1.2,2.792,2.792,0,0,1,.8,2,3.174,3.174,0,0,1-1.5,2.7,7.9,7.9,0,0,1-4.5,1,13.172,13.172,0,0,1-4.4-.8,10.717,10.717,0,0,1-3.5-2h0l-1.3,2.7a11.619,11.619,0,0,0,4,2.2A14.731,14.731,0,0,0,147.9,24.9Zm22.5,0a12.592,12.592,0,0,0,5.1-.9,6.524,6.524,0,0,0,3.1-2.5,5.986,5.986,0,0,0,1-3.5,5.219,5.219,0,0,0-1.2-3.6,6.9,6.9,0,0,0-2.8-2,34.99,34.99,0,0,0-4.4-1.3,24.337,24.337,0,0,1-3.3-.9,5.613,5.613,0,0,1-2-1.2,2.792,2.792,0,0,1-.8-2,3.472,3.472,0,0,1,1.5-2.8c1-.8,2.4-1.1,4.4-1.1a13.986,13.986,0,0,1,3.4.5,10.362,10.362,0,0,1,3.2,1.5h0l1.1-2.8A12.481,12.481,0,0,0,175.2.7,15.225,15.225,0,0,0,171,.1a12.929,12.929,0,0,0-5.1.9,6.524,6.524,0,0,0-3.1,2.5,5.986,5.986,0,0,0-1,3.5,5.489,5.489,0,0,0,1.2,3.7,6.9,6.9,0,0,0,2.8,2,34.99,34.99,0,0,0,4.4,1.3c1.4.3,2.6.7,3.3.9a5.613,5.613,0,0,1,2,1.2,2.792,2.792,0,0,1,.8,2,3.174,3.174,0,0,1-1.5,2.7,7.9,7.9,0,0,1-4.5,1,13.172,13.172,0,0,1-4.4-.8,10.717,10.717,0,0,1-3.5-2h0l-1.3,2.7a11.619,11.619,0,0,0,4,2.2A13.859,13.859,0,0,0,170.4,24.9Z" fill="#fff"/>
      <path id="GROWTHCAPITAL_00000019664872283534743940000016106543834193165203_" d="M20.4,42a7.719,7.719,0,0,0,1.5-.2,6.11,6.11,0,0,0,1.4-.7h0V38.2H21.6v1.9a1.8,1.8,0,0,1-1,.2,1.689,1.689,0,0,1-1-.3,2.336,2.336,0,0,1-.7-.7,1.645,1.645,0,0,1-.2-1,1.978,1.978,0,0,1,.5-1.4,1.741,1.741,0,0,1,1.4-.5,2.465,2.465,0,0,1,1.7.8h0l1.2-1.1a3.045,3.045,0,0,0-1.3-.9,4.671,4.671,0,0,0-1.7-.3,4.552,4.552,0,0,0-2,.5,3.483,3.483,0,0,0-1.4,1.3,3.83,3.83,0,0,0-.5,1.9,4.136,4.136,0,0,0,.5,1.9,3.531,3.531,0,0,0,1.4,1.3A10.074,10.074,0,0,0,20.4,42Zm11-.1V40h1.1l1.2,1.8h2.1l-1.5-2.2a2.189,2.189,0,0,0,1-.9,2.768,2.768,0,0,0,.3-1.3,2.3,2.3,0,0,0-.4-1.4,2.012,2.012,0,0,0-1.1-.9,4.146,4.146,0,0,0-1.6-.3H29.4v6.9h2Zm1-3.4H31.3v-2h1.1a1.222,1.222,0,0,1,.9.3.908.908,0,0,1,.3.7.779.779,0,0,1-.3.7,1.222,1.222,0,0,1-.9.3ZM45,42a4.552,4.552,0,0,0,2-.5,3.483,3.483,0,0,0,1.4-1.3,3.49,3.49,0,0,0,0-3.6A3.531,3.531,0,0,0,47,35.3a4.25,4.25,0,0,0-4,0,3.483,3.483,0,0,0-1.4,1.3,3.49,3.49,0,0,0,0,3.6A3.531,3.531,0,0,0,43,41.5,4.552,4.552,0,0,0,45,42Zm0-1.6a2.388,2.388,0,0,1-.9-.2,2.336,2.336,0,0,1-.7-.7,1.645,1.645,0,0,1-.2-1,2.958,2.958,0,0,1,.2-1,2.336,2.336,0,0,1,.7-.7,1.486,1.486,0,0,1,.9-.2,2.388,2.388,0,0,1,.9.2,2.336,2.336,0,0,1,.7.7,1.645,1.645,0,0,1,.2,1,2.958,2.958,0,0,1-.2,1,2.336,2.336,0,0,1-.7.7A2,2,0,0,1,45,40.4Zm13.3,1.5,1.4-4.2L61,41.9h2.1L65.3,35H63.4L62,39.4,60.6,35H58.8l-1.5,4.4L56,35H54l2.2,6.9Zm16,0V36.5h2.1V35H70.3v1.5h2.1v5.4Zm9.6,0V39.2h2.6v2.7h1.9V35H86.5v2.6H83.9V35H82v6.9ZM106,42a4.671,4.671,0,0,0,1.7-.3,3.051,3.051,0,0,0,1.3-1h0l-1.2-1.1a2.088,2.088,0,0,1-1.6.8,2.958,2.958,0,0,1-1-.2,2.336,2.336,0,0,1-.7-.7,1.645,1.645,0,0,1-.2-1,2.959,2.959,0,0,1,.2-1,2.336,2.336,0,0,1,.7-.7,1.645,1.645,0,0,1,1-.2,2.088,2.088,0,0,1,1.6.8h0l1.2-1.1a4.486,4.486,0,0,0-1.3-1A4.671,4.671,0,0,0,106,35a3.83,3.83,0,0,0-1.9.5,3.25,3.25,0,0,0-1.3,1.3,3.83,3.83,0,0,0-.5,1.9,4.136,4.136,0,0,0,.5,1.9,4.036,4.036,0,0,0,1.3,1.3C104.6,41.9,105.3,42,106,42Zm9.7-.1.5-1.3h2.9l.5,1.3h2l-3-6.9h-1.9l-3,6.9Zm2.9-2.8h-1.8l.9-2.2Zm10.5,2.8V40.1h1.2a3.808,3.808,0,0,0,1.6-.3,2.445,2.445,0,0,0,1.1-.9,2.01,2.01,0,0,0,.4-1.3,2.3,2.3,0,0,0-.4-1.4,2.012,2.012,0,0,0-1.1-.9,4.146,4.146,0,0,0-1.6-.3h-3.1v6.9Zm1.1-3.4h-1.1v-2h1.1a1.222,1.222,0,0,1,.9.3.908.908,0,0,1,.3.7.779.779,0,0,1-.3.7,1.222,1.222,0,0,1-.9.3Zm10.9,3.4V35h-1.9v6.9Zm9.7,0V36.5h2.1V35h-6.1v1.5h2.1v5.4Zm8.6,0,.5-1.3h2.9l.5,1.3h2l-3-6.9h-1.9l-3,6.9Zm2.8-2.8h-1.8l.9-2.2ZM176,41.9V40.4h-3.3V35h-1.9v6.9Z" fill="#fff"/>
    </g>
  </g>
</svg>
