<svg id="Group_17" data-name="Group 17" xmlns="http://www.w3.org/2000/svg" xmlns:xlink="http://www.w3.org/1999/xlink" width="75" height="8.909" viewBox="0 0 75 8.909">
  <defs>
    <clipPath id="clip-path">
      <path id="Clip_2" data-name="Clip 2" d="M0,0H9.688V8.909H0Z" fill="none"/>
    </clipPath>
    <clipPath id="clip-path-2">
      <path id="Clip_11" data-name="Clip 11" d="M0,0H7.313V8.909H0Z" fill="none"/>
    </clipPath>
  </defs>
  <g id="Group_3" data-name="Group 3" transform="translate(0 0)">
    <path id="Clip_2-2" data-name="Clip 2" d="M0,0H9.688V8.909H0Z" fill="none"/>
    <g id="Group_3-2" data-name="Group 3" clip-path="url(#clip-path)">
      <path id="Fill_1" data-name="Fill 1" d="M1.476.186A.209.209,0,0,1,1.7,0h.2a.226.226,0,0,1,.21.124l2.722,5.84h.037L7.589.124A.213.213,0,0,1,7.8,0H8A.209.209,0,0,1,8.22.186L9.68,8.5a.215.215,0,0,1-.223.285H8.331A.268.268,0,0,1,8.1,8.6L7.366,3.91H7.329L5.163,8.773a.21.21,0,0,1-.21.136H4.73a.222.222,0,0,1-.21-.136L2.33,3.91H2.293L1.575,8.6a.24.24,0,0,1-.223.186H.239A.227.227,0,0,1,0,8.5Z" transform="translate(0)" fill="#9dd4bb"/>
    </g>
  </g>
  <path id="Fill_4" data-name="Fill 4" d="M8.018,8.785H6.942a.353.353,0,0,1-.359-.248L5.976,7.2h-3.7L1.67,8.537a.376.376,0,0,1-.359.248H.235a.232.232,0,0,1-.2-.1.226.226,0,0,1-.007-.22L3.873.136A.221.221,0,0,1,4.083,0h.123a.209.209,0,0,1,.211.136L8.229,8.464a.227.227,0,0,1-.008.221A.233.233,0,0,1,8.018,8.785ZM4.1,3.106,2.883,5.828H5.37L4.133,3.106H4.1Z" transform="translate(12.699 0)" fill="#9dd4bb"/>
  <path id="Fill_6" data-name="Fill 6" d="M.059,7.573.5,6.805a.287.287,0,0,1,.421-.087,4.1,4.1,0,0,0,1.868.767,1.033,1.033,0,0,0,1.126-.953c0-.631-.532-1.064-1.571-1.485C1.185,4.578.022,3.836.022,2.376A2.471,2.471,0,0,1,2.806,0,4.356,4.356,0,0,1,5.28.829a.306.306,0,0,1,.074.408l-.47.705a.326.326,0,0,1-.433.148,4.071,4.071,0,0,0-1.72-.681.985.985,0,0,0-1.089.866c0,.582.458.978,1.46,1.386,1.2.483,2.586,1.2,2.586,2.8a2.614,2.614,0,0,1-2.846,2.45A3.981,3.981,0,0,1,.121,7.944C.009,7.832-.053,7.77.059,7.573" transform="translate(23.962)" fill="#9dd4bb"/>
  <path id="Fill_8" data-name="Fill 8" d="M4.442,8.909A4.415,4.415,0,0,1,0,4.467,4.456,4.456,0,0,1,1.293,1.305a4.459,4.459,0,0,1,6.3,0,4.449,4.449,0,0,1-3.155,7.6Zm0-7.3A2.846,2.846,0,1,0,7.288,4.467,2.89,2.89,0,0,0,4.442,1.608Z" transform="translate(33.09)" fill="#9dd4bb"/>
  <g id="Group_12" data-name="Group 12" transform="translate(46.082)">
    <path id="Clip_11-2" data-name="Clip 11" d="M0,0H7.313V8.909H0Z" fill="none"/>
    <g id="Group_12-2" data-name="Group 12" clip-path="url(#clip-path-2)">
      <path id="Fill_10" data-name="Fill 10" d="M0,.223A.233.233,0,0,1,.235,0H.544L5.692,5.469H5.7V.359A.235.235,0,0,1,5.939.124H7.078a.243.243,0,0,1,.235.235V8.686a.233.233,0,0,1-.235.223h-.3L1.609,3.229H1.6V8.55a.235.235,0,0,1-.235.235H.235A.243.243,0,0,1,0,8.55Z" transform="translate(0 0)" fill="#9dd4bb"/>
    </g>
  </g>
  <path id="Fill_13" data-name="Fill 13" d="M6.125,8.662h-1.3a.21.21,0,0,1-.2-.112L2.982,5.271H1.608V8.426a.245.245,0,0,1-.235.236H.235A.236.236,0,0,1,0,8.426V.235A.235.235,0,0,1,.235,0H3.774a2.682,2.682,0,0,1,2.7,2.66A2.727,2.727,0,0,1,4.64,5.16L6.335,8.3a.255.255,0,0,1,0,.249A.234.234,0,0,1,6.125,8.662Zm-4.5-7.177V3.947H3.638A1.261,1.261,0,0,0,4.863,2.685a1.229,1.229,0,0,0-1.225-1.2Z" transform="translate(58.121 0.124)" fill="#9dd4bb"/>
  <path id="Fill_15" data-name="Fill 15" d="M2.86,4.491.039.359A.229.229,0,0,1,.237,0H1.5a.246.246,0,0,1,.2.111l1.98,2.846L5.656.111A.246.246,0,0,1,5.854,0H7.129a.229.229,0,0,1,.2.359L4.468,4.479V8.426a.243.243,0,0,1-.235.235H3.1a.235.235,0,0,1-.235-.235Z" transform="translate(67.634 0.124)" fill="#9dd4bb"/>
</svg>
