<svg id="Layer_1" data-name="Layer 1" xmlns="http://www.w3.org/2000/svg" viewBox="0 0 181.37 34.6"><defs><style>.cls-1{fill:#fff;}.cls-2{fill:#a7a9b0;}</style></defs><g id="Group-3"><path id="CYPRESS" class="cls-1" d="M64,24.42a11,11,0,0,0,4.21-.78,8.72,8.72,0,0,0,3.27-2.3h0l-1.82-1.76a7.33,7.33,0,0,1-5.52,2.35,7.93,7.93,0,0,1-3.95-1,7.16,7.16,0,0,1-2.76-2.7,7.59,7.59,0,0,1-1-3.85,7.59,7.59,0,0,1,1-3.85,7.16,7.16,0,0,1,2.76-2.7,7.93,7.93,0,0,1,3.95-1,7.32,7.32,0,0,1,5.52,2.32h0L71.5,7.43a8.57,8.57,0,0,0-3.25-2.28,11,11,0,0,0-4.2-.77,10.86,10.86,0,0,0-5.32,1.3A9.59,9.59,0,0,0,55,9.26a10,10,0,0,0-1.34,5.14A10,10,0,0,0,55,19.54a9.67,9.67,0,0,0,3.71,3.58A10.82,10.82,0,0,0,64,24.42Zm19.65-.22V17.42L91.45,4.6H88.68l-6.3,10.33L76.11,4.6h-3L80.9,17.37V24.2Zm14.07,0V18.26h4.85a9,9,0,0,0,6-1.82,6.15,6.15,0,0,0,2.18-5,6.15,6.15,0,0,0-2.18-5,9.1,9.1,0,0,0-6-1.82H94.94V24.2Zm4.76-8.37H97.74V7h4.76a6.28,6.28,0,0,1,4.06,1.13,3.93,3.93,0,0,1,1.4,3.26,3.92,3.92,0,0,1-1.4,3.26,6.28,6.28,0,0,1-4.06,1.14Zm16.18,8.37v-6h4.84c.3,0,.71,0,1.24-.06h0l4.22,6H132l-4.65-6.58a6.39,6.39,0,0,0,3.19-2.32,6.57,6.57,0,0,0,1.12-3.87,6.18,6.18,0,0,0-2.18-5,9.13,9.13,0,0,0-6-1.82h-7.64V24.2Zm4.76-8.34h-4.76V7h4.76a6.3,6.3,0,0,1,4.06,1.13,4,4,0,0,1,1.4,3.26,4,4,0,0,1-1.4,3.28,6.3,6.3,0,0,1-4.06,1.15Zm28,8.34V21.76H140V15.44h9.82V13.06H140V7h11V4.6H137.24V24.2Zm11.25.22a10.46,10.46,0,0,0,4.2-.74,5.58,5.58,0,0,0,2.55-2,5,5,0,0,0,.84-2.82,4.31,4.31,0,0,0-1-2.94A5.85,5.85,0,0,0,167,14.29a27.28,27.28,0,0,0-3.56-1.07,24.54,24.54,0,0,1-2.7-.74,4.54,4.54,0,0,1-1.66-1,2.13,2.13,0,0,1-.68-1.64,2.67,2.67,0,0,1,1.19-2.24,6.14,6.14,0,0,1,3.57-.86,9.89,9.89,0,0,1,2.75.4,10.22,10.22,0,0,1,2.63,1.19h0l.92-2.24a9.07,9.07,0,0,0-2.88-1.29,13.59,13.59,0,0,0-3.42-.44,10.23,10.23,0,0,0-4.17.75,5.7,5.7,0,0,0-2.5,2,5,5,0,0,0-.83,2.83,4.35,4.35,0,0,0,1,3A5.86,5.86,0,0,0,159,14.6a28.69,28.69,0,0,0,3.57,1.06,27.16,27.16,0,0,1,2.73.76,4.28,4.28,0,0,1,1.62,1,2.17,2.17,0,0,1,.66,1.64,2.56,2.56,0,0,1-1.2,2.2,6.49,6.49,0,0,1-3.64.82,10.58,10.58,0,0,1-3.6-.63,8.6,8.6,0,0,1-2.87-1.63h0l-1,2.18a8.88,8.88,0,0,0,3.24,1.78A13.3,13.3,0,0,0,162.71,24.42Zm18.39,0a10.46,10.46,0,0,0,4.2-.74,5.6,5.6,0,0,0,2.54-2,5,5,0,0,0,.84-2.82,4.3,4.3,0,0,0-1-2.94,6,6,0,0,0-2.31-1.62,27.28,27.28,0,0,0-3.56-1.07,23.92,23.92,0,0,1-2.7-.74,4.67,4.67,0,0,1-1.67-1,2.16,2.16,0,0,1-.67-1.64A2.67,2.67,0,0,1,178,7.62a6.14,6.14,0,0,1,3.57-.86,9.89,9.89,0,0,1,2.75.4A10.22,10.22,0,0,1,187,8.35h0l.92-2.24A9.07,9.07,0,0,0,185,4.82a13.59,13.59,0,0,0-3.42-.44,10.23,10.23,0,0,0-4.17.75,5.73,5.73,0,0,0-2.51,2,5,5,0,0,0-.82,2.83,4.39,4.39,0,0,0,1,3,6,6,0,0,0,2.33,1.64,27.68,27.68,0,0,0,3.57,1.06c1.17.28,2.08.53,2.73.76a4.36,4.36,0,0,1,1.62,1,2.17,2.17,0,0,1,.66,1.64,2.56,2.56,0,0,1-1.2,2.2,6.52,6.52,0,0,1-3.64.82,10.49,10.49,0,0,1-3.6-.63,8.5,8.5,0,0,1-2.87-1.63h0l-1,2.18a8.79,8.79,0,0,0,3.24,1.78A13.3,13.3,0,0,0,181.1,24.42Z" transform="translate(-7.32 -4.2)"/><path id="GROWTHCAPITAL" class="cls-1" d="M58.68,38.31a4.43,4.43,0,0,0,1.24-.18A3.57,3.57,0,0,0,61,37.6h0V35.28h-1.4v1.54a2.07,2.07,0,0,1-.86.18,1.69,1.69,0,0,1-.82-.2,1.46,1.46,0,0,1-.56-.57,1.62,1.62,0,0,1-.2-.83,1.52,1.52,0,0,1,.44-1.16,1.58,1.58,0,0,1,1.16-.44,1.79,1.79,0,0,1,1.36.62h0l1-.91a2.83,2.83,0,0,0-1-.76,3.73,3.73,0,0,0-1.41-.26,3.38,3.38,0,0,0-1.61.37,2.72,2.72,0,0,0-1.11,1,3,3,0,0,0,0,3,2.69,2.69,0,0,0,1.1,1A3.33,3.33,0,0,0,58.68,38.31Zm8.94-.11V36.71h.86l1,1.49h1.7L70,36.44a1.86,1.86,0,0,0,1.09-1.77,1.89,1.89,0,0,0-1.16-1.82,3.21,3.21,0,0,0-1.32-.25H66v5.6Zm.88-2.71h-.88V33.85h.88a1.13,1.13,0,0,1,.74.21.9.9,0,0,1,0,1.22,1.13,1.13,0,0,1-.74.21Zm10.28,2.82a3.4,3.4,0,0,0,1.6-.37,2.87,2.87,0,0,0,0-5.08,3.64,3.64,0,0,0-3.2,0,2.87,2.87,0,0,0,0,5.08A3.4,3.4,0,0,0,78.78,38.31Zm0-1.31a1.55,1.55,0,0,1-.77-.2,1.39,1.39,0,0,1-.54-.56,1.86,1.86,0,0,1,0-1.68A1.39,1.39,0,0,1,78,34a1.58,1.58,0,0,1,1.54,0,1.39,1.39,0,0,1,.54.56,1.86,1.86,0,0,1,0,1.68,1.39,1.39,0,0,1-.54.56A1.55,1.55,0,0,1,78.78,37Zm10.83,1.2,1.12-3.41L91.8,38.2h1.7l1.82-5.6H93.8l-1.17,3.61L91.5,32.6H90l-1.18,3.58L87.73,32.6H86.1l1.82,5.6Zm13,0V33.86h1.72V32.6h-5v1.26h1.72V38.2Zm7.89,0V36h2.16V38.2h1.59V32.6h-1.59v2.1h-2.16V32.6H109v5.6Zm18,.11A3.4,3.4,0,0,0,129.9,38a2.63,2.63,0,0,0,1-.78h0l-1-.92a1.69,1.69,0,0,1-2.14.46,1.41,1.41,0,0,1-.55-.56,2,2,0,0,1,0-1.68,1.41,1.41,0,0,1,.55-.56,1.69,1.69,0,0,1,2.14.46h0l1-.92a2.63,2.63,0,0,0-1-.78,3.4,3.4,0,0,0-1.38-.27,3.26,3.26,0,0,0-1.58.37,2.69,2.69,0,0,0-1.1,1,3,3,0,0,0,0,3,2.69,2.69,0,0,0,1.1,1A3.26,3.26,0,0,0,128.52,38.31Zm8-.11.44-1.09h2.36l.44,1.09h1.65l-2.48-5.6h-1.56l-2.47,5.6Zm2.34-2.26h-1.44l.72-1.79Zm8.58,2.26V36.74h1a3.14,3.14,0,0,0,1.32-.26,1.89,1.89,0,0,0,.86-.71,2.11,2.11,0,0,0,0-2.2,2,2,0,0,0-.86-.72,3.14,3.14,0,0,0-1.32-.25h-2.56v5.6Zm.88-2.71h-.88V33.85h.88a1.13,1.13,0,0,1,.74.21.87.87,0,0,1,0,1.22,1.13,1.13,0,0,1-.74.21Zm8.94,2.71V32.6h-1.58v5.6Zm7.9,0V33.86h1.72V32.6h-5v1.26h1.72V38.2Zm7,0,.44-1.09h2.37l.44,1.09H177l-2.48-5.6H173l-2.47,5.6Zm2.35-2.26H173l.72-1.79Zm11.25,2.26V36.94H183V32.6h-1.58v5.6Z" transform="translate(-7.32 -4.2)"/></g><rect id="Rectangle" class="cls-2" x="25.2" y="12" width="10.6" height="10.6" rx="3"/><rect id="Rectangle-Copy-8" class="cls-1" x="25.2" width="10.6" height="10.6" rx="3"/><rect id="Rectangle-Copy-11" class="cls-1" x="25.2" y="24" width="10.6" height="10.6" rx="3"/><rect id="Rectangle-Copy-6" class="cls-2" x="12.6" y="12" width="10.6" height="10.6" rx="3"/><rect id="Rectangle-Copy-9" class="cls-1" x="12.6" width="10.6" height="10.6" rx="3"/><rect id="Rectangle-Copy-12" class="cls-1" x="12.6" y="24" width="10.6" height="10.6" rx="3"/><rect id="Rectangle-Copy-7" class="cls-1" y="12" width="10.6" height="10.6" rx="3"/><rect id="Rectangle-Copy-10" class="cls-1" width="10.6" height="10.6" rx="3"/><rect id="Rectangle-Copy-13" class="cls-1" y="24" width="10.6" height="10.6" rx="3"/></svg>