<svg width="196px" height="43px" viewBox="0 0 196 43" version="1.1" xmlns="http://www.w3.org/2000/svg" xmlns:xlink="http://www.w3.org/1999/xlink">
    <g id="Symbols" stroke="none" stroke-width="1" fill="none" fill-rule="evenodd">
        <g id="Nav_White" transform="translate(-37.000000, -26.000000)">
            <g id="Group-50" transform="translate(37.000000, 26.000000)">
                <g id="Group-3" transform="translate(45.000000, 0.000000)" fill="#2D5B44" fill-rule="nonzero">
                    <path d="M11.704,27.224 C13.2346667,27.224 14.6393333,26.9626667 15.918,26.44 C17.1966667,25.9173333 18.284,25.152 19.18,24.144 L19.18,24.144 L17.36,22.38 C15.8666667,23.948 14.028,24.732 11.844,24.732 C10.388,24.732 9.072,24.4053333 7.896,23.752 C6.72,23.0986667 5.80066667,22.198 5.138,21.05 C4.47533333,19.902 4.144,18.6186667 4.144,17.2 C4.144,15.7813333 4.47533333,14.498 5.138,13.35 C5.80066667,12.202 6.72,11.3013333 7.896,10.648 C9.072,9.99466667 10.388,9.668 11.844,9.668 C14.0466667,9.668 15.8853333,10.4426667 17.36,11.992 L17.36,11.992 L19.18,10.228 C18.284,9.22 17.2013333,8.45933333 15.932,7.946 C14.6626667,7.43266667 13.2626667,7.176 11.732,7.176 C9.772,7.176 7.99866667,7.61 6.412,8.478 C4.82533333,9.346 3.584,10.5406667 2.688,12.062 C1.792,13.5833333 1.344,15.296 1.344,17.2 C1.344,19.104 1.792,20.8166667 2.688,22.338 C3.584,23.8593333 4.82066667,25.054 6.398,25.922 C7.97533333,26.79 9.744,27.224 11.704,27.224 Z M31.352,27 L31.352,20.224 L39.136,7.4 L36.364,7.4 L30.064,17.732 L23.792,7.4 L20.796,7.4 L28.58,20.168 L28.58,27 L31.352,27 Z M45.428,27 L45.428,21.064 L50.272,21.064 C52.8106667,21.064 54.808,20.4573333 56.264,19.244 C57.72,18.0306667 58.448,16.36 58.448,14.232 C58.448,12.104 57.72,10.4333333 56.264,9.22 C54.808,8.00666667 52.8106667,7.4 50.272,7.4 L50.272,7.4 L42.628,7.4 L42.628,27 L45.428,27 Z M50.188,18.628 L45.428,18.628 L45.428,9.836 L50.188,9.836 C51.9613333,9.836 53.3146667,10.214 54.248,10.97 C55.1813333,11.726 55.648,12.8133333 55.648,14.232 C55.648,15.6506667 55.1813333,16.738 54.248,17.494 C53.3146667,18.25 51.9613333,18.628 50.188,18.628 L50.188,18.628 Z M66.364,27 L66.364,21.036 L71.208,21.036 C71.5066667,21.036 71.9173333,21.0173333 72.44,20.98 L72.44,20.98 L76.668,27 L79.72,27 L75.072,20.42 C76.4533333,19.9346667 77.5173333,19.16 78.264,18.096 C79.0106667,17.032 79.384,15.744 79.384,14.232 C79.384,12.104 78.656,10.4333333 77.2,9.22 C75.744,8.00666667 73.7466667,7.4 71.208,7.4 L71.208,7.4 L63.564,7.4 L63.564,27 L66.364,27 Z M71.124,18.656 L66.364,18.656 L66.364,9.836 L71.124,9.836 C72.8973333,9.836 74.2506667,10.214 75.184,10.97 C76.1173333,11.726 76.584,12.8133333 76.584,14.232 C76.584,15.6506667 76.1173333,16.7426667 75.184,17.508 C74.2506667,18.2733333 72.8973333,18.656 71.124,18.656 L71.124,18.656 Z M99.144,27 L99.144,24.564 L87.72,24.564 L87.72,18.236 L97.548,18.236 L97.548,15.856 L87.72,15.856 L87.72,9.836 L98.752,9.836 L98.752,7.4 L84.92,7.4 L84.92,27 L99.144,27 Z M110.392,27.224 C112.053333,27.224 113.453333,26.9766667 114.592,26.482 C115.730667,25.9873333 116.58,25.3153333 117.14,24.466 C117.7,23.6166667 117.98,22.6786667 117.98,21.652 C117.98,20.42 117.658,19.44 117.014,18.712 C116.37,17.984 115.6,17.4426667 114.704,17.088 C113.808,16.7333333 112.622667,16.3786667 111.148,16.024 C110.009333,15.7626667 109.108667,15.5153333 108.446,15.282 C107.783333,15.0486667 107.228,14.722 106.78,14.302 C106.332,13.882 106.108,13.336 106.108,12.664 C106.108,11.7493333 106.504667,11.0026667 107.298,10.424 C108.091333,9.84533333 109.281333,9.556 110.868,9.556 C111.764,9.556 112.678667,9.69133333 113.612,9.962 C114.545333,10.2326667 115.422667,10.6293333 116.244,11.152 L116.244,11.152 L117.168,8.912 C116.365333,8.352 115.404,7.92266667 114.284,7.624 C113.164,7.32533333 112.025333,7.176 110.868,7.176 C109.206667,7.176 107.816,7.428 106.696,7.932 C105.576,8.436 104.740667,9.108 104.19,9.948 C103.639333,10.788 103.364,11.7306667 103.364,12.776 C103.364,14.0266667 103.686,15.0206667 104.33,15.758 C104.974,16.4953333 105.748667,17.0413333 106.654,17.396 C107.559333,17.7506667 108.749333,18.1053333 110.224,18.46 C111.4,18.74 112.31,18.992 112.954,19.216 C113.598,19.44 114.139333,19.762 114.578,20.182 C115.016667,20.602 115.236,21.148 115.236,21.82 C115.236,22.7346667 114.834667,23.4673333 114.032,24.018 C113.229333,24.5686667 112.016,24.844 110.392,24.844 C109.16,24.844 107.960667,24.634 106.794,24.214 C105.627333,23.794 104.670667,23.248 103.924,22.576 L103.924,22.576 L102.888,24.76 C103.672,25.488 104.75,26.0806667 106.122,26.538 C107.494,26.9953333 108.917333,27.224 110.392,27.224 Z M128.78,27.224 C130.441333,27.224 131.841333,26.9766667 132.98,26.482 C134.118667,25.9873333 134.968,25.3153333 135.528,24.466 C136.088,23.6166667 136.368,22.6786667 136.368,21.652 C136.368,20.42 136.046,19.44 135.402,18.712 C134.758,17.984 133.988,17.4426667 133.092,17.088 C132.196,16.7333333 131.010667,16.3786667 129.536,16.024 C128.397333,15.7626667 127.496667,15.5153333 126.834,15.282 C126.171333,15.0486667 125.616,14.722 125.168,14.302 C124.72,13.882 124.496,13.336 124.496,12.664 C124.496,11.7493333 124.892667,11.0026667 125.686,10.424 C126.479333,9.84533333 127.669333,9.556 129.256,9.556 C130.152,9.556 131.066667,9.69133333 132,9.962 C132.933333,10.2326667 133.810667,10.6293333 134.632,11.152 L134.632,11.152 L135.556,8.912 C134.753333,8.352 133.792,7.92266667 132.672,7.624 C131.552,7.32533333 130.413333,7.176 129.256,7.176 C127.594667,7.176 126.204,7.428 125.084,7.932 C123.964,8.436 123.128667,9.108 122.578,9.948 C122.027333,10.788 121.752,11.7306667 121.752,12.776 C121.752,14.0266667 122.074,15.0206667 122.718,15.758 C123.362,16.4953333 124.136667,17.0413333 125.042,17.396 C125.947333,17.7506667 127.137333,18.1053333 128.612,18.46 C129.788,18.74 130.698,18.992 131.342,19.216 C131.986,19.44 132.527333,19.762 132.966,20.182 C133.404667,20.602 133.624,21.148 133.624,21.82 C133.624,22.7346667 133.222667,23.4673333 132.42,24.018 C131.617333,24.5686667 130.404,24.844 128.78,24.844 C127.548,24.844 126.348667,24.634 125.182,24.214 C124.015333,23.794 123.058667,23.248 122.312,22.576 L122.312,22.576 L121.276,24.76 C122.06,25.488 123.138,26.0806667 124.51,26.538 C125.882,26.9953333 127.305333,27.224 128.78,27.224 Z" id="CYPRESS"></path>
                    <path d="M6.36,41.112 C6.776,41.112 7.192,41.0506667 7.608,40.928 C8.024,40.8053333 8.392,40.6293333 8.712,40.4 L8.712,40.4 L8.712,38.08 L7.312,38.08 L7.312,39.616 C7.04533333,39.7386667 6.76,39.8 6.456,39.8 C6.14666667,39.8 5.872,39.732 5.632,39.596 C5.392,39.46 5.20533333,39.2706667 5.072,39.028 C4.93866667,38.7853333 4.872,38.5093333 4.872,38.2 C4.872,37.7146667 5.01866667,37.3266667 5.312,37.036 C5.60533333,36.7453333 5.992,36.6 6.472,36.6 C7,36.6 7.45333333,36.808 7.832,37.224 L7.832,37.224 L8.84,36.312 C8.56266667,35.9813333 8.216,35.728 7.8,35.552 C7.384,35.376 6.91466667,35.288 6.392,35.288 C5.79466667,35.288 5.25866667,35.412 4.784,35.66 C4.30933333,35.908 3.93866667,36.2533333 3.672,36.696 C3.40533333,37.1386667 3.272,37.64 3.272,38.2 C3.272,38.76 3.40533333,39.2613333 3.672,39.704 C3.93866667,40.1466667 4.30666667,40.492 4.776,40.74 C5.24533333,40.988 5.77333333,41.112 6.36,41.112 Z M15.304,41 L15.304,39.512 L16.168,39.512 L17.184,41 L18.88,41 L17.672,39.24 C18.024,39.0693333 18.2946667,38.8333333 18.484,38.532 C18.6733333,38.2306667 18.768,37.8773333 18.768,37.472 C18.768,37.0506667 18.6666667,36.684 18.464,36.372 C18.2613333,36.06 17.9733333,35.82 17.6,35.652 C17.2266667,35.484 16.7866667,35.4 16.28,35.4 L16.28,35.4 L13.72,35.4 L13.72,41 L15.304,41 Z M16.184,38.288 L15.304,38.288 L15.304,36.648 L16.184,36.648 C16.5093333,36.648 16.7546667,36.72 16.92,36.864 C17.0853333,37.008 17.168,37.2106667 17.168,37.472 C17.168,37.7333333 17.0853333,37.9346667 16.92,38.076 C16.7546667,38.2173333 16.5093333,38.288 16.184,38.288 L16.184,38.288 Z M26.464,41.112 C27.056,41.112 27.588,40.9866667 28.06,40.736 C28.532,40.4853333 28.9026667,40.1386667 29.172,39.696 C29.4413333,39.2533333 29.576,38.7546667 29.576,38.2 C29.576,37.6453333 29.4413333,37.1466667 29.172,36.704 C28.9026667,36.2613333 28.532,35.9146667 28.06,35.664 C27.588,35.4133333 27.056,35.288 26.464,35.288 C25.872,35.288 25.34,35.4133333 24.868,35.664 C24.396,35.9146667 24.0253333,36.2613333 23.756,36.704 C23.4866667,37.1466667 23.352,37.6453333 23.352,38.2 C23.352,38.7546667 23.4866667,39.2533333 23.756,39.696 C24.0253333,40.1386667 24.396,40.4853333 24.868,40.736 C25.34,40.9866667 25.872,41.112 26.464,41.112 Z M26.464,39.8 C26.1813333,39.8 25.9253333,39.7333333 25.696,39.6 C25.4666667,39.4666667 25.2853333,39.2786667 25.152,39.036 C25.0186667,38.7933333 24.952,38.5146667 24.952,38.2 C24.952,37.8853333 25.0186667,37.6066667 25.152,37.364 C25.2853333,37.1213333 25.4666667,36.9333333 25.696,36.8 C25.9253333,36.6666667 26.1813333,36.6 26.464,36.6 C26.7466667,36.6 27.0026667,36.6666667 27.232,36.8 C27.4613333,36.9333333 27.6426667,37.1213333 27.776,37.364 C27.9093333,37.6066667 27.976,37.8853333 27.976,38.2 C27.976,38.5146667 27.9093333,38.7933333 27.776,39.036 C27.6426667,39.2786667 27.4613333,39.4666667 27.232,39.6 C27.0026667,39.7333333 26.7466667,39.8 26.464,39.8 Z M37.296,41 L38.416,37.592 L39.488,41 L41.184,41 L43,35.4 L41.488,35.4 L40.312,39.008 L39.184,35.4 L37.728,35.4 L36.544,38.976 L35.416,35.4 L33.784,35.4 L35.6,41 L37.296,41 Z M50.328,41 L50.328,36.656 L52.04,36.656 L52.04,35.4 L47.024,35.4 L47.024,36.656 L48.744,36.656 L48.744,41 L50.328,41 Z M58.216,41 L58.216,38.816 L60.376,38.816 L60.376,41 L61.96,41 L61.96,35.4 L60.376,35.4 L60.376,37.504 L58.216,37.504 L58.216,35.4 L56.632,35.4 L56.632,41 L58.216,41 Z M76.2,41.112 C76.712,41.112 77.1733333,41.0213333 77.584,40.84 C77.9946667,40.6586667 78.336,40.3973333 78.608,40.056 L78.608,40.056 L77.6,39.144 C77.2373333,39.5813333 76.7973333,39.8 76.28,39.8 C75.976,39.8 75.7053333,39.7333333 75.468,39.6 C75.2306667,39.4666667 75.0466667,39.2786667 74.916,39.036 C74.7853333,38.7933333 74.72,38.5146667 74.72,38.2 C74.72,37.8853333 74.7853333,37.6066667 74.916,37.364 C75.0466667,37.1213333 75.2306667,36.9333333 75.468,36.8 C75.7053333,36.6666667 75.976,36.6 76.28,36.6 C76.7973333,36.6 77.2373333,36.8186667 77.6,37.256 L77.6,37.256 L78.608,36.344 C78.336,36.0026667 77.9946667,35.7413333 77.584,35.56 C77.1733333,35.3786667 76.712,35.288 76.2,35.288 C75.6133333,35.288 75.0866667,35.412 74.62,35.66 C74.1533333,35.908 73.7866667,36.2533333 73.52,36.696 C73.2533333,37.1386667 73.12,37.64 73.12,38.2 C73.12,38.76 73.2533333,39.2613333 73.52,39.704 C73.7866667,40.1466667 74.1533333,40.492 74.62,40.74 C75.0866667,40.988 75.6133333,41.112 76.2,41.112 Z M84.16,41 L84.6,39.912 L86.968,39.912 L87.408,41 L89.056,41 L86.576,35.4 L85.016,35.4 L82.544,41 L84.16,41 Z M86.504,38.744 L85.064,38.744 L85.784,36.952 L86.504,38.744 Z M95.088,41 L95.088,39.536 L96.064,39.536 C96.5706667,39.536 97.0106667,39.452 97.384,39.284 C97.7573333,39.116 98.0453333,38.8773333 98.248,38.568 C98.4506667,38.2586667 98.552,37.8933333 98.552,37.472 C98.552,37.0506667 98.4506667,36.684 98.248,36.372 C98.0453333,36.06 97.7573333,35.82 97.384,35.652 C97.0106667,35.484 96.5706667,35.4 96.064,35.4 L96.064,35.4 L93.504,35.4 L93.504,41 L95.088,41 Z M95.968,38.288 L95.088,38.288 L95.088,36.648 L95.968,36.648 C96.2933333,36.648 96.5386667,36.72 96.704,36.864 C96.8693333,37.008 96.952,37.2106667 96.952,37.472 C96.952,37.7333333 96.8693333,37.9346667 96.704,38.076 C96.5386667,38.2173333 96.2933333,38.288 95.968,38.288 L95.968,38.288 Z M104.904,41 L104.904,35.4 L103.32,35.4 L103.32,41 L104.904,41 Z M112.808,41 L112.808,36.656 L114.52,36.656 L114.52,35.4 L109.504,35.4 L109.504,36.656 L111.224,36.656 L111.224,41 L112.808,41 Z M119.776,41 L120.216,39.912 L122.584,39.912 L123.024,41 L124.672,41 L122.192,35.4 L120.632,35.4 L118.16,41 L119.776,41 Z M122.12,38.744 L120.68,38.744 L121.4,36.952 L122.12,38.744 Z M133.376,41 L133.376,39.744 L130.704,39.744 L130.704,35.4 L129.12,35.4 L129.12,41 L133.376,41 Z" id="GROWTHCAPITAL"></path>
                </g>
                <rect id="Rectangle" fill="#A7A9B0" x="25.2" y="19" width="10.6" height="10.6" rx="3"></rect>
                <rect id="Rectangle-Copy-8" fill="#2D5B44" x="25.2" y="7" width="10.6" height="10.6" rx="3"></rect>
                <rect id="Rectangle-Copy-11" fill="#2D5B44" x="25.2" y="31" width="10.6" height="10.6" rx="3"></rect>
                <rect id="Rectangle-Copy-6" fill="#A7A9B0" x="12.6" y="19" width="10.6" height="10.6" rx="3"></rect>
                <rect id="Rectangle-Copy-9" fill="#2D5B44" x="12.6" y="7" width="10.6" height="10.6" rx="3"></rect>
                <rect id="Rectangle-Copy-12" fill="#2D5B44" x="12.6" y="31" width="10.6" height="10.6" rx="3"></rect>
                <rect id="Rectangle-Copy-7" fill="#2D5B44" x="0" y="19" width="10.6" height="10.6" rx="3"></rect>
                <rect id="Rectangle-Copy-10" fill="#2D5B44" x="0" y="7" width="10.6" height="10.6" rx="3"></rect>
                <rect id="Rectangle-Copy-13" fill="#2D5B44" x="0" y="31" width="10.6" height="10.6" rx="3"></rect>
            </g>
        </g>
    </g>
</svg>